<svg width="308" height="303" viewBox="0 0 308 303" fill="none" xmlns="http://www.w3.org/2000/svg">
<g clip-path="url(#clip0_1617_309)">
<path d="M36.6418 187.656C30.3831 186.656 25.0655 186.255 19.9584 184.974C6.9402 181.722 0.391195 173.666 0.0707477 160.347C-0.138103 151.537 0.109229 142.722 0.811772 133.937C1.44265 125.932 6.22934 120.277 12.8285 115.924C14.7764 114.567 16.1671 112.552 16.7439 110.25C26.7579 57.6121 71.24 13.0296 123.894 3.04233C171.87 -6.06428 214.26 5.49416 250.28 38.378C271.8 58.0123 285.329 82.5803 291.037 111.321C291.479 113.02 292.494 114.515 293.911 115.554C303.645 122.499 308.461 131.766 307.93 143.765C307.63 150.419 307.85 157.134 306.929 163.709C306.485 167.806 304.977 171.716 302.555 175.051C300.132 178.386 296.88 181.031 293.12 182.723C291.773 183.288 290.58 184.165 289.64 185.283C288.699 186.4 288.039 187.725 287.712 189.147C277.859 222.081 259.072 248.721 230.843 268.425C214.1 280.104 195.854 288.44 175.356 290.981C170.889 291.532 167.344 292.893 164.53 296.836C163.008 298.963 160.954 300.653 158.572 301.737C156.191 302.82 153.566 303.259 150.961 303.01C144.152 302.53 137.272 302.22 130.623 300.859C122.061 299.117 118.236 292.453 119.067 282.585C119.353 278.888 120.96 275.416 123.594 272.804C126.229 270.192 129.715 268.613 133.417 268.355C140.236 267.955 147.166 267.634 153.905 268.445C157.731 268.905 161.766 271.127 164.801 273.649C167.244 275.65 169.187 276.651 172.211 276.031C208.422 268.885 237.672 250.572 256.589 218.889C283.006 174.677 286.33 127.933 263.138 81.4894C240.536 36.2266 189.976 11.0983 139.635 17.2228C90.3867 23.2271 56.4593 49.4361 38.1738 95.1492C26.858 123.46 27.489 152.781 35.0696 182.062C35.5102 183.443 35.9008 184.874 36.6418 187.656Z" fill="#2C3E50"/>
<path d="M136.25 208.001C123.402 206.78 115.591 198.894 115.281 185.455C114.76 161.957 115.101 138.42 115.101 114.933C115.101 114.633 115.341 114.333 115.681 113.522C122.241 113.522 129.08 113.072 135.8 113.783C138.003 114.013 140.186 117.015 141.898 119.136C150.911 130.294 159.743 141.583 168.645 152.811C169.967 154.482 171.359 156.103 173.142 158.275C180.031 149.519 186.651 141.262 193.1 132.866C197.456 127.182 201.481 121.238 205.887 115.584C206.986 114.229 208.563 113.347 210.294 113.122C216.602 112.852 222.931 113.012 229.761 113.012C229.881 115.013 230.071 116.625 230.071 118.206C230.071 149.558 230.141 180.901 229.981 212.274C229.881 214.875 229.021 217.391 227.508 219.509C222.961 225.744 216.492 229.516 208.481 232.709V143.814L207.299 143.584C202.372 150.379 197.476 157.204 192.489 163.969C187.051 171.344 181.473 178.62 176.036 185.985C172.281 191.099 171.329 191.219 167.564 185.985C160.204 175.677 152.953 165.29 145.623 154.962C142.859 151.05 140.005 147.197 136.24 142.013L136.25 208.001Z" fill="#BC9C6B"/>
<path d="M113.17 61.064C127.74 59.7631 142.48 60.0637 157.141 60.1138C172.302 60.1138 187.523 59.9637 202.604 61.2046C209.564 61.775 216.274 65.4769 223.434 67.8687L182.246 103.875C184 92.5005 172.194 94.1925 169.5 91.0005C161.218 81.0833 156.469 79.358 143.331 79.7183C137.323 79.8784 131.315 79.718 125.307 79.7681C102.986 79.7681 87.7043 91.7763 86.4023 114.132C85.0003 139.579 85.211 165.089 87.0332 190.508C88.3951 210.363 102.234 221.17 122.082 221.581C129.913 221.741 137.754 221.581 145.595 221.521C157.952 221.521 169.207 229.917 171.12 241.706C149.8 240.865 128.461 241.705 107.682 238.703C84.3292 235.32 66.8451 215.806 64.1914 192.339C62.3389 175.868 62.8594 159.096 62.7793 142.454C62.7192 130.815 62.3682 119.026 64.0205 107.568C65.6672 95.3733 71.4415 84.1092 80.3828 75.6489C89.3243 67.1886 100.895 62.0414 113.17 61.064Z" fill="#2C3E50"/>
<path d="M213.504 61.239C223.165 61.5448 230.748 69.6239 230.442 79.284C230.136 88.9441 222.057 96.5273 212.397 96.2214L194.165 95.6441L180.497 108.654C179.188 109.9 177.027 108.933 177.084 107.126L177.472 94.8654C169.261 93.2022 163.201 85.8186 163.475 77.1636C163.781 67.5035 171.86 59.9203 181.521 60.2262L213.504 61.239Z" fill="#BC9C6B"/>
<circle cx="4.04229" cy="4.04229" r="4.04229" transform="matrix(-0.997317 -0.0731998 -0.0731998 0.997317 215.988 74.7827)" fill="white"/>
<circle cx="4.04229" cy="4.04229" r="4.04229" transform="matrix(-0.997317 -0.0731998 -0.0731998 0.997317 201.879 73.7471)" fill="white"/>
<circle cx="4.04229" cy="4.04229" r="4.04229" transform="matrix(-0.997317 -0.0731998 -0.0731998 0.997317 187.77 72.7114)" fill="white"/>
</g>
<defs>
<clipPath id="clip0_1617_309">
<rect width="308" height="303" fill="white"/>
</clipPath>
</defs>
</svg>
