<svg width="692" height="154" viewBox="0 0 692 154" fill="none" xmlns="http://www.w3.org/2000/svg">
<g clip-path="url(#clip0_1133_27050)">
<path d="M18.6237 95.3764C15.4427 94.8678 12.7401 94.6644 10.1444 94.0134C3.52786 92.3603 0.199322 88.266 0.0364539 81.4963C-0.0696948 77.0186 0.056012 72.5384 0.41308 68.0737C0.733726 64.0048 3.16656 61.1311 6.52062 58.9186C7.51061 58.2289 8.21742 57.2046 8.51061 56.0347C13.6002 29.2813 36.2083 6.62221 62.9695 1.54618C87.3538 -3.08226 108.898 2.79233 127.205 19.5056C138.143 29.4847 145.019 41.9714 147.92 56.579C148.145 57.4426 148.661 58.2025 149.381 58.7304C154.328 62.2603 156.776 66.9701 156.506 73.0684C156.354 76.4507 156.466 79.8635 155.997 83.2052C155.772 85.2875 155.005 87.2747 153.774 88.9697C152.543 90.6648 150.89 92.009 148.979 92.869C148.294 93.1562 147.688 93.6021 147.21 94.1699C146.732 94.7377 146.396 95.4111 146.231 96.1343C141.222 112.873 131.674 126.413 117.327 136.427C108.817 142.363 99.5435 146.6 89.1251 147.891C86.8551 148.171 85.0534 148.863 83.6232 150.867C82.8496 151.948 81.8054 152.807 80.595 153.358C79.3846 153.909 78.0506 154.132 76.7267 154.005C73.2658 153.761 69.7692 153.603 66.3897 152.912C62.0381 152.027 60.0938 148.639 60.5163 143.624C60.6618 141.745 61.4785 139.981 62.8174 138.653C64.1562 137.325 65.9281 136.523 67.8097 136.392C71.2757 136.188 74.7977 136.025 78.223 136.437C80.1673 136.671 82.2184 137.801 83.7606 139.082C85.0025 140.099 85.9898 140.608 87.5269 140.293C105.931 136.661 120.798 127.353 130.412 111.251C143.838 88.7797 145.528 65.022 133.741 41.417C122.253 18.4121 96.5558 5.64066 70.9703 8.75342C45.9396 11.8051 28.696 25.1258 19.4023 48.3596C13.6511 62.7485 13.9718 77.6511 17.8246 92.5333C18.0486 93.2352 18.2471 93.9625 18.6237 95.3764Z" fill="#2C3E50"/>
<path d="M69.2492 105.717C62.7193 105.096 58.7493 101.088 58.5915 94.2575C58.3268 82.3151 58.4999 70.3524 58.4999 58.415C58.4999 58.2625 58.6221 58.1099 58.7952 57.6979C62.1289 57.6979 65.6051 57.4691 69.0202 57.8302C70.14 57.9472 71.2494 59.4729 72.1197 60.5512C76.7004 66.2223 81.1894 71.9596 85.7141 77.6664C86.3859 78.5158 87.0934 79.3397 87.9993 80.4434C91.501 75.993 94.8653 71.7968 98.143 67.5295C100.357 64.6405 102.403 61.6193 104.642 58.7456C105.201 58.0568 106.002 57.6089 106.882 57.4944C110.088 57.3571 113.305 57.4385 116.776 57.4385C116.837 58.4558 116.934 59.2746 116.934 60.0782C116.934 76.0133 116.969 91.9433 116.888 107.889C116.837 109.211 116.4 110.489 115.631 111.566C113.32 114.735 110.032 116.652 105.961 118.275V73.0939L105.36 72.9769C102.856 76.4304 100.367 79.8992 97.8325 83.3374C95.0688 87.086 92.2339 90.7836 89.4703 94.5271C87.5617 97.1261 87.0782 97.1872 85.1645 94.5271C81.4236 89.2883 77.7387 84.0088 74.0131 78.7598C72.6083 76.7711 71.1578 74.813 69.2442 72.1783L69.2492 105.717Z" fill="#BC9C6B"/>
<path d="M57.5186 31.0356C64.9239 30.3745 72.416 30.5278 79.8672 30.5532C87.5727 30.5532 95.3088 30.4763 102.974 31.1069C106.511 31.3968 109.921 33.279 113.561 34.4946L92.627 52.7944C93.5182 47.0134 87.5175 47.873 86.1484 46.2505C81.9395 41.2104 79.5258 40.334 72.8486 40.5171C69.7949 40.5985 66.7403 40.517 63.6865 40.5425C52.342 40.5427 44.5757 46.6459 43.9141 58.0083C43.2015 70.9412 43.3083 83.9063 44.2344 96.8257C44.9266 106.917 51.9604 112.41 62.0479 112.619C66.0279 112.7 70.0139 112.619 73.999 112.588C80.2794 112.589 85.9996 116.856 86.9717 122.847C76.136 122.42 65.2903 122.847 54.7295 121.321C42.8607 119.602 33.9739 109.684 32.625 97.7573C31.6834 89.3854 31.9479 80.8602 31.9072 72.4019C31.8767 66.4867 31.6993 60.495 32.5391 54.6714C33.376 48.4736 36.3102 42.7486 40.8545 38.4487C45.399 34.1488 51.2799 31.5324 57.5186 31.0356Z" fill="#2C3E50"/>
<path d="M108.514 31.1248C113.424 31.2803 117.278 35.3866 117.122 40.2964C116.967 45.2061 112.86 49.0604 107.951 48.905L98.6839 48.6116L91.7378 55.2232C91.0724 55.8566 89.9737 55.3653 90.0027 54.4472L90.2001 48.2139C86.027 47.3684 82.9475 43.6173 83.0867 39.2187C83.2421 34.3089 87.3485 30.4546 92.2582 30.6101L108.514 31.1248Z" fill="#BC9C6B"/>
<circle cx="2.0545" cy="2.0545" r="2.0545" transform="matrix(-0.997317 -0.0731998 -0.0731998 0.997317 109.776 38.0083)" fill="white"/>
<circle cx="2.0545" cy="2.0545" r="2.0545" transform="matrix(-0.997317 -0.0731998 -0.0731998 0.997317 102.605 37.4819)" fill="white"/>
<circle cx="2.0545" cy="2.0545" r="2.0545" transform="matrix(-0.997317 -0.0731998 -0.0731998 0.997317 95.4346 36.9556)" fill="white"/>
</g>
<mask id="path-8-outside-1_1133_27050" maskUnits="userSpaceOnUse" x="459" y="42" width="232" height="67" fill="black">
<rect fill="white" x="459" y="42" width="232" height="67"/>
<path d="M478.365 58.04L469.455 107H461.805L473.685 44H481.515L496.545 95.93L511.575 44H519.405L531.285 107H523.635L514.725 58.04L500.145 107H492.945L478.365 58.04ZM565.098 49.76L544.128 107H536.298L559.968 44H570.228L593.808 107H585.978L565.098 49.76ZM618.893 51.11V107H611.603V51.11H593.603V44H636.893V51.11H618.893ZM688.063 100.16V107H645.223V44H688.063V50.84H652.603V71.09H683.743V77.39H652.603V100.16H688.063Z"/>
</mask>
<path d="M478.365 58.04L469.455 107H461.805L473.685 44H481.515L496.545 95.93L511.575 44H519.405L531.285 107H523.635L514.725 58.04L500.145 107H492.945L478.365 58.04ZM565.098 49.76L544.128 107H536.298L559.968 44H570.228L593.808 107H585.978L565.098 49.76ZM618.893 51.11V107H611.603V51.11H593.603V44H636.893V51.11H618.893ZM688.063 100.16V107H645.223V44H688.063V50.84H652.603V71.09H683.743V77.39H652.603V100.16H688.063Z" fill="#BC9C6B"/>
<path d="M478.365 58.04L480.281 57.4692L476.397 57.6819L478.365 58.04ZM469.455 107V109H471.123L471.422 107.358L469.455 107ZM461.805 107L459.839 106.629L459.392 109H461.805V107ZM473.685 44V42H472.027L471.719 43.6294L473.685 44ZM481.515 44L483.436 43.444L483.018 42H481.515V44ZM496.545 95.93L494.623 96.486L496.545 103.124L498.466 96.486L496.545 95.93ZM511.575 44V42H510.071L509.653 43.444L511.575 44ZM519.405 44L521.37 43.6294L521.063 42H519.405V44ZM531.285 107V109H533.697L533.25 106.629L531.285 107ZM523.635 107L521.667 107.358L521.966 109H523.635V107ZM514.725 58.04L516.692 57.6819L512.808 57.4692L514.725 58.04ZM500.145 107V109H501.636L502.061 107.571L500.145 107ZM492.945 107L491.028 107.571L491.453 109H492.945V107ZM478.365 58.04L476.397 57.6819L467.487 106.642L469.455 107L471.422 107.358L480.332 58.3981L478.365 58.04ZM469.455 107V105H461.805V107V109H469.455V107ZM461.805 107L463.77 107.371L475.65 44.3706L473.685 44L471.719 43.6294L459.839 106.629L461.805 107ZM473.685 44V46H481.515V44V42H473.685V44ZM481.515 44L479.593 44.556L494.623 96.486L496.545 95.93L498.466 95.374L483.436 43.444L481.515 44ZM496.545 95.93L498.466 96.486L513.496 44.556L511.575 44L509.653 43.444L494.623 95.374L496.545 95.93ZM511.575 44V46H519.405V44V42H511.575V44ZM519.405 44L517.439 44.3706L529.319 107.371L531.285 107L533.25 106.629L521.37 43.6294L519.405 44ZM531.285 107V105H523.635V107V109H531.285V107ZM523.635 107L525.602 106.642L516.692 57.6819L514.725 58.04L512.757 58.3981L521.667 107.358L523.635 107ZM514.725 58.04L512.808 57.4692L498.228 106.429L500.145 107L502.061 107.571L516.641 58.6108L514.725 58.04ZM500.145 107V105H492.945V107V109H500.145V107ZM492.945 107L494.861 106.429L480.281 57.4692L478.365 58.04L476.448 58.6108L491.028 107.571L492.945 107ZM565.098 49.76L566.977 49.0746L565.102 43.9349L563.22 49.072L565.098 49.76ZM544.128 107V109H545.525L546.006 107.688L544.128 107ZM536.298 107L534.426 106.297L533.41 109H536.298V107ZM559.968 44V42H558.583L558.096 43.2966L559.968 44ZM570.228 44L572.101 43.2989L571.615 42H570.228V44ZM593.808 107V109H596.692L595.681 106.299L593.808 107ZM585.978 107L584.099 107.685L584.579 109H585.978V107ZM565.098 49.76L563.22 49.072L542.25 106.312L544.128 107L546.006 107.688L566.976 50.448L565.098 49.76ZM544.128 107V105H536.298V107V109H544.128V107ZM536.298 107L538.17 107.703L561.84 44.7034L559.968 44L558.096 43.2966L534.426 106.297L536.298 107ZM559.968 44V46H570.228V44V42H559.968V44ZM570.228 44L568.355 44.7011L591.935 107.701L593.808 107L595.681 106.299L572.101 43.2989L570.228 44ZM593.808 107V105H585.978V107V109H593.808V107ZM585.978 107L587.857 106.315L566.977 49.0746L565.098 49.76L563.219 50.4454L584.099 107.685L585.978 107ZM618.893 51.11V49.11H616.893V51.11H618.893ZM618.893 107V109H620.893V107H618.893ZM611.603 107H609.603V109H611.603V107ZM611.603 51.11H613.603V49.11H611.603V51.11ZM593.603 51.11H591.603V53.11H593.603V51.11ZM593.603 44V42H591.603V44H593.603ZM636.893 44H638.893V42H636.893V44ZM636.893 51.11V53.11H638.893V51.11H636.893ZM618.893 51.11H616.893V107H618.893H620.893V51.11H618.893ZM618.893 107V105H611.603V107V109H618.893V107ZM611.603 107H613.603V51.11H611.603H609.603V107H611.603ZM611.603 51.11V49.11H593.603V51.11V53.11H611.603V51.11ZM593.603 51.11H595.603V44H593.603H591.603V51.11H593.603ZM593.603 44V46H636.893V44V42H593.603V44ZM636.893 44H634.893V51.11H636.893H638.893V44H636.893ZM636.893 51.11V49.11H618.893V51.11V53.11H636.893V51.11ZM688.062 100.16H690.062V98.16H688.062V100.16ZM688.062 107V109H690.062V107H688.062ZM645.223 107H643.223V109H645.223V107ZM645.223 44V42H643.223V44H645.223ZM688.062 44H690.062V42H688.062V44ZM688.062 50.84V52.84H690.062V50.84H688.062ZM652.602 50.84V48.84H650.602V50.84H652.602ZM652.602 71.09H650.602V73.09H652.602V71.09ZM683.743 71.09H685.743V69.09H683.743V71.09ZM683.743 77.39V79.39H685.743V77.39H683.743ZM652.602 77.39V75.39H650.602V77.39H652.602ZM652.602 100.16H650.602V102.16H652.602V100.16ZM688.062 100.16H686.062V107H688.062H690.062V100.16H688.062ZM688.062 107V105H645.223V107V109H688.062V107ZM645.223 107H647.223V44H645.223H643.223V107H645.223ZM645.223 44V46H688.062V44V42H645.223V44ZM688.062 44H686.062V50.84H688.062H690.062V44H688.062ZM688.062 50.84V48.84H652.602V50.84V52.84H688.062V50.84ZM652.602 50.84H650.602V71.09H652.602H654.602V50.84H652.602ZM652.602 71.09V73.09H683.743V71.09V69.09H652.602V71.09ZM683.743 71.09H681.743V77.39H683.743H685.743V71.09H683.743ZM683.743 77.39V75.39H652.602V77.39V79.39H683.743V77.39ZM652.602 77.39H650.602V100.16H652.602H654.602V77.39H652.602ZM652.602 100.16V102.16H688.062V100.16V98.16H652.602V100.16Z" fill="#BC9C6B" mask="url(#path-8-outside-1_1133_27050)"/>
<mask id="path-10-outside-2_1133_27050" maskUnits="userSpaceOnUse" x="183" y="41" width="254" height="69" fill="black">
<rect fill="white" x="183" y="41" width="254" height="69"/>
<path d="M218.09 107.9C200.63 107.9 185.69 93.77 185.69 75.5C185.69 55.52 202.34 43.1 218.09 43.1C227.54 43.1 235.55 46.52 241.4 52.73L236.45 57.77C231.86 53 225.56 50.12 218.09 50.12C206.03 50.12 192.62 59.66 192.62 75.5C192.62 89.9 204.59 100.88 218 100.88C224.75 100.88 233.3 98 237.8 91.61V73.16H244.91V95.3C239.06 104.3 226.91 107.9 218.09 107.9ZM298.203 99.89V107H255.633V44H263.013V99.89H298.203ZM331.162 49.76L310.192 107H302.362L326.032 44H336.292L359.872 107H352.042L331.162 49.76ZM381.451 58.04L372.541 107H364.891L376.771 44H384.601L399.631 95.93L414.661 44H422.491L434.371 107H426.721L417.811 58.04L403.231 107H396.031L381.451 58.04Z"/>
</mask>
<path d="M218.09 107.9C200.63 107.9 185.69 93.77 185.69 75.5C185.69 55.52 202.34 43.1 218.09 43.1C227.54 43.1 235.55 46.52 241.4 52.73L236.45 57.77C231.86 53 225.56 50.12 218.09 50.12C206.03 50.12 192.62 59.66 192.62 75.5C192.62 89.9 204.59 100.88 218 100.88C224.75 100.88 233.3 98 237.8 91.61V73.16H244.91V95.3C239.06 104.3 226.91 107.9 218.09 107.9ZM298.203 99.89V107H255.633V44H263.013V99.89H298.203ZM331.162 49.76L310.192 107H302.362L326.032 44H336.292L359.872 107H352.042L331.162 49.76ZM381.451 58.04L372.541 107H364.891L376.771 44H384.601L399.631 95.93L414.661 44H422.491L434.371 107H426.721L417.811 58.04L403.231 107H396.031L381.451 58.04Z" fill="#2C3E50"/>
<path d="M241.4 52.73L242.827 54.1314L244.175 52.7589L242.856 51.3586L241.4 52.73ZM236.45 57.77L235.009 59.1568L236.435 60.6392L237.877 59.1714L236.45 57.77ZM237.8 91.61L239.435 92.7616L239.8 92.2436V91.61H237.8ZM237.8 73.16V71.16H235.8V73.16H237.8ZM244.91 73.16H246.91V71.16H244.91V73.16ZM244.91 95.3L246.587 96.39L246.91 95.8929V95.3H244.91ZM218.09 107.9V105.9C201.702 105.9 187.69 92.633 187.69 75.5H185.69H183.69C183.69 94.907 199.558 109.9 218.09 109.9V107.9ZM185.69 75.5H187.69C187.69 56.7905 203.271 45.1 218.09 45.1V43.1V41.1C201.409 41.1 183.69 54.2495 183.69 75.5H185.69ZM218.09 43.1V45.1C227.027 45.1 234.497 48.3193 239.944 54.1014L241.4 52.73L242.856 51.3586C236.603 44.7207 228.053 41.1 218.09 41.1V43.1ZM241.4 52.73L239.973 51.3286L235.023 56.3686L236.45 57.77L237.877 59.1714L242.827 54.1314L241.4 52.73ZM236.45 57.77L237.891 56.3832C232.927 51.224 226.107 48.12 218.09 48.12V50.12V52.12C225.013 52.12 230.793 54.776 235.009 59.1568L236.45 57.77ZM218.09 50.12V48.12C205.133 48.12 190.62 58.3588 190.62 75.5H192.62H194.62C194.62 60.9612 206.927 52.12 218.09 52.12V50.12ZM192.62 75.5H190.62C190.62 91.0549 203.536 102.88 218 102.88V100.88V98.88C205.644 98.88 194.62 88.7451 194.62 75.5H192.62ZM218 100.88V102.88C225.164 102.88 234.442 99.8516 239.435 92.7616L237.8 91.61L236.165 90.4584C232.158 96.1484 224.336 98.88 218 98.88V100.88ZM237.8 91.61H239.8V73.16H237.8H235.8V91.61H237.8ZM237.8 73.16V75.16H244.91V73.16V71.16H237.8V73.16ZM244.91 73.16H242.91V95.3H244.91H246.91V73.16H244.91ZM244.91 95.3L243.233 94.21C237.906 102.405 226.575 105.9 218.09 105.9V107.9V109.9C227.245 109.9 240.214 106.195 246.587 96.39L244.91 95.3ZM298.203 99.89H300.203V97.89H298.203V99.89ZM298.203 107V109H300.203V107H298.203ZM255.633 107H253.633V109H255.633V107ZM255.633 44V42H253.633V44H255.633ZM263.013 44H265.013V42H263.013V44ZM263.013 99.89H261.013V101.89H263.013V99.89ZM298.203 99.89H296.203V107H298.203H300.203V99.89H298.203ZM298.203 107V105H255.633V107V109H298.203V107ZM255.633 107H257.633V44H255.633H253.633V107H255.633ZM255.633 44V46H263.013V44V42H255.633V44ZM263.013 44H261.013V99.89H263.013H265.013V44H263.013ZM263.013 99.89V101.89H298.203V99.89V97.89H263.013V99.89ZM331.162 49.76L333.041 49.0746L331.166 43.9349L329.284 49.072L331.162 49.76ZM310.192 107V109H311.59L312.07 107.688L310.192 107ZM302.362 107L300.49 106.297L299.474 109H302.362V107ZM326.032 44V42H324.647L324.16 43.2966L326.032 44ZM336.292 44L338.165 43.2989L337.679 42H336.292V44ZM359.872 107V109H362.756L361.745 106.299L359.872 107ZM352.042 107L350.163 107.685L350.643 109H352.042V107ZM331.162 49.76L329.284 49.072L308.314 106.312L310.192 107L312.07 107.688L333.04 50.448L331.162 49.76ZM310.192 107V105H302.362V107V109H310.192V107ZM302.362 107L304.235 107.703L327.905 44.7034L326.032 44L324.16 43.2966L300.49 106.297L302.362 107ZM326.032 44V46H336.292V44V42H326.032V44ZM336.292 44L334.419 44.7011L357.999 107.701L359.872 107L361.745 106.299L338.165 43.2989L336.292 44ZM359.872 107V105H352.042V107V109H359.872V107ZM352.042 107L353.921 106.315L333.041 49.0746L331.162 49.76L329.283 50.4454L350.163 107.685L352.042 107ZM381.451 58.04L383.367 57.4692L379.483 57.6819L381.451 58.04ZM372.541 107V109H374.209L374.508 107.358L372.541 107ZM364.891 107L362.925 106.629L362.478 109H364.891V107ZM376.771 44V42H375.112L374.805 43.6294L376.771 44ZM384.601 44L386.522 43.444L386.104 42H384.601V44ZM399.631 95.93L397.709 96.486L399.631 103.124L401.552 96.486L399.631 95.93ZM414.661 44V42H413.157L412.739 43.444L414.661 44ZM422.491 44L424.456 43.6294L424.149 42H422.491V44ZM434.371 107V109H436.783L436.336 106.629L434.371 107ZM426.721 107L424.753 107.358L425.052 109H426.721V107ZM417.811 58.04L419.778 57.6819L415.894 57.4692L417.811 58.04ZM403.231 107V109H404.722L405.147 107.571L403.231 107ZM396.031 107L394.114 107.571L394.539 109H396.031V107ZM381.451 58.04L379.483 57.6819L370.573 106.642L372.541 107L374.508 107.358L383.418 58.3981L381.451 58.04ZM372.541 107V105H364.891V107V109H372.541V107ZM364.891 107L366.856 107.371L378.736 44.3706L376.771 44L374.805 43.6294L362.925 106.629L364.891 107ZM376.771 44V46H384.601V44V42H376.771V44ZM384.601 44L382.679 44.556L397.709 96.486L399.631 95.93L401.552 95.374L386.522 43.444L384.601 44ZM399.631 95.93L401.552 96.486L416.582 44.556L414.661 44L412.739 43.444L397.709 95.374L399.631 95.93ZM414.661 44V46H422.491V44V42H414.661V44ZM422.491 44L420.525 44.3706L432.405 107.371L434.371 107L436.336 106.629L424.456 43.6294L422.491 44ZM434.371 107V105H426.721V107V109H434.371V107ZM426.721 107L428.688 106.642L419.778 57.6819L417.811 58.04L415.843 58.3981L424.753 107.358L426.721 107ZM417.811 58.04L415.894 57.4692L401.314 106.429L403.231 107L405.147 107.571L419.727 58.6108L417.811 58.04ZM403.231 107V105H396.031V107V109H403.231V107ZM396.031 107L397.947 106.429L383.367 57.4692L381.451 58.04L379.534 58.6108L394.114 107.571L396.031 107Z" fill="#2C3E50" mask="url(#path-10-outside-2_1133_27050)"/>
<defs>
<clipPath id="clip0_1133_27050">
<rect width="156.541" height="154" fill="white"/>
</clipPath>
</defs>
</svg>
